HIERARCHY
ROOT Hips
{
	OFFSET 0.000000 100.481300 0.000000
	CHANNELS 6 Xposition Yposition Zposition Xrotation Yrotation Zrotation 
	JOINT Spine
	{
		OFFSET -0.279200 12.230698 -2.892100
		CHANNELS 3 Xrotation Yrotation Zrotation
		JOINT Spine1
		{
			OFFSET -0.232667 10.192268 -1.242267
			CHANNELS 3 Xrotation Yrotation Zrotation
			JOINT Spine1_split
			{
				OFFSET -0.232667 10.192268 -1.242267
				CHANNELS 3 Xrotation Yrotation Zrotation
				JOINT Spine2
				{
					OFFSET -0.232667 10.192268 -1.242267
					CHANNELS 3 Xrotation Yrotation Zrotation
					JOINT Neck
					{
						OFFSET -0.418800 17.814194 8.416900
						CHANNELS 3 Xrotation Yrotation Zrotation
						JOINT Head
						{
							OFFSET 0.000000 7.031097 3.806800
							CHANNELS 3 Xrotation Yrotation Zrotation
							JOINT HeadTop_End
							{
								OFFSET 0.000000 24.646606 12.978600
								CHANNELS 3 Xrotation Yrotation Zrotation
								End Site
								{
									OFFSET 0.000000 0.000000 0.000000
								}
							}
						}
					}
					JOINT LeftShoulder
					{
						OFFSET 8.476499 7.247704 -3.868750
						CHANNELS 3 Xrotation Yrotation Zrotation
						JOINT LeftShoulder_split
						{
							OFFSET 8.476499 7.247704 -3.868750
							CHANNELS 3 Xrotation Yrotation Zrotation
							JOINT LeftArm
							{
								OFFSET 9.308998 -2.777710 0.208600
								CHANNELS 3 Xrotation Yrotation Zrotation
								JOINT LeftForeArm
								{
									OFFSET 29.972298 0.000000 0.000000
									CHANNELS 3 Xrotation Yrotation Zrotation
									JOINT LeftHand
									{
										OFFSET 26.026505 0.000000 0.000000
										CHANNELS 3 Xrotation Yrotation Zrotation
										JOINT LeftHandThumb1
										{
											OFFSET 12.240501 -7.147949 9.207150
											CHANNELS 3 Xrotation Yrotation Zrotation
											JOINT LeftHandThumb2
											{
												OFFSET 4.138618 -2.389435 2.389433
												CHANNELS 3 Xrotation Yrotation Zrotation
												JOINT LeftHandThumb3
												{
													OFFSET 2.726913 -1.574387 1.574386
													CHANNELS 3 Xrotation Yrotation Zrotation
													JOINT LeftHandThumb4
													{
														OFFSET 3.941010 -2.275345 2.275342
														CHANNELS 3 Xrotation Yrotation Zrotation
														End Site
														{
															OFFSET 0.000000 0.000000 0.000000
														}
													}
												}
											}
										}
										JOINT LeftHandIndex1
										{
											OFFSET 24.424698 -1.985611 5.953459
											CHANNELS 3 Xrotation Yrotation Zrotation
											JOINT LeftHandIndex2
											{
												OFFSET 6.426697 0.000000 0.000000
												CHANNELS 3 Xrotation Yrotation Zrotation
												JOINT LeftHandIndex3
												{
													OFFSET 5.337898 0.000000 0.000000
													CHANNELS 3 Xrotation Yrotation Zrotation
													JOINT LeftHandIndex4
													{
														OFFSET 4.409401 0.000000 0.000000
														CHANNELS 3 Xrotation Yrotation Zrotation
														End Site
														{
															OFFSET 0.000000 0.000000 0.000000
														}
													}
												}
											}
										}
										JOINT LeftHandMiddle1
										{
											OFFSET 23.810104 0.000000 0.000000
											CHANNELS 3 Xrotation Yrotation Zrotation
											JOINT LeftHandMiddle2
											{
												OFFSET 7.176498 0.000000 0.000000
												CHANNELS 3 Xrotation Yrotation Zrotation
												JOINT LeftHandMiddle3
												{
													OFFSET 6.774902 0.000000 0.000000
													CHANNELS 3 Xrotation Yrotation Zrotation
													JOINT LeftHandMiddle4
													{
														OFFSET 5.403328 0.000000 0.000000
														CHANNELS 3 Xrotation Yrotation Zrotation
														End Site
														{
															OFFSET 0.000000 0.000000 0.000000
														}
													}
												}
											}
										}
										JOINT LeftHandRing1
										{
											OFFSET 22.908401 -0.839279 -6.020567
											CHANNELS 3 Xrotation Yrotation Zrotation
											JOINT LeftHandRing2
											{
												OFFSET 6.337502 0.000000 0.000000
												CHANNELS 3 Xrotation Yrotation Zrotation
												JOINT LeftHandRing3
												{
													OFFSET 5.779297 0.000000 0.000000
													CHANNELS 3 Xrotation Yrotation Zrotation
													JOINT LeftHandRing4
													{
														OFFSET 4.965698 0.000000 0.000000
														CHANNELS 3 Xrotation Yrotation Zrotation
														End Site
														{
															OFFSET 0.000000 0.000000 0.000000
														}
													}
												}
											}
										}
										JOINT LeftHandPinky1
										{
											OFFSET 20.037003 -1.530319 -10.950146
											CHANNELS 3 Xrotation Yrotation Zrotation
											JOINT LeftHandPinky2
											{
												OFFSET 5.254700 0.000000 0.000000
												CHANNELS 3 Xrotation Yrotation Zrotation
												JOINT LeftHandPinky3
												{
													OFFSET 4.810204 0.000000 0.000000
													CHANNELS 3 Xrotation Yrotation Zrotation
													JOINT LeftHandPinky4
													{
														OFFSET 3.647202 0.000000 0.000000
														CHANNELS 3 Xrotation Yrotation Zrotation
														End Site
														{
															OFFSET 0.000000 0.000000 0.000000
														}
													}
												}
											}
										}
									}
								}
							}
						}
					}
					JOINT RightShoulder
					{
						OFFSET -7.570500 7.247704 -3.868750
						CHANNELS 3 Xrotation Yrotation Zrotation
						JOINT RightShoulder_split
						{
							OFFSET -7.570500 7.247704 -3.868750
							CHANNELS 3 Xrotation Yrotation Zrotation
							JOINT RightArm
							{
								OFFSET -9.308998 -2.777710 0.208500
								CHANNELS 3 Xrotation Yrotation Zrotation
								JOINT RightForeArm
								{
									OFFSET -29.972300 0.000000 0.000000
									CHANNELS 3 Xrotation Yrotation Zrotation
									JOINT RightHand
									{
										OFFSET -26.026505 0.000000 0.000000
										CHANNELS 3 Xrotation Yrotation Zrotation
										JOINT RightHandThumb1
										{
											OFFSET -12.240601 -7.148026 9.207092
											CHANNELS 3 Xrotation Yrotation Zrotation
											JOINT RightHandThumb2
											{
												OFFSET -4.138618 -2.389435 2.389433
												CHANNELS 3 Xrotation Yrotation Zrotation
												JOINT RightHandThumb3
												{
													OFFSET -2.726974 -1.574417 1.574421
													CHANNELS 3 Xrotation Yrotation Zrotation
													JOINT RightHandThumb4
													{
														OFFSET -3.941010 -2.275345 2.275343
														CHANNELS 3 Xrotation Yrotation Zrotation
														End Site
														{
															OFFSET 0.000000 0.000000 0.000000
														}
													}
												}
											}
										}
										JOINT RightHandIndex1
										{
											OFFSET -24.424698 -1.985657 5.953444
											CHANNELS 3 Xrotation Yrotation Zrotation
											JOINT RightHandIndex2
											{
												OFFSET -6.426697 0.000000 0.000000
												CHANNELS 3 Xrotation Yrotation Zrotation
												JOINT RightHandIndex3
												{
													OFFSET -5.337898 0.000000 0.000000
													CHANNELS 3 Xrotation Yrotation Zrotation
													JOINT RightHandIndex4
													{
														OFFSET -4.409401 0.000000 0.000000
														CHANNELS 3 Xrotation Yrotation Zrotation
														End Site
														{
															OFFSET 0.000000 0.000000 0.000000
														}
													}
												}
											}
										}
										JOINT RightHandMiddle1
										{
											OFFSET -23.810097 0.000000 0.000000
											CHANNELS 3 Xrotation Yrotation Zrotation
											JOINT RightHandMiddle2
											{
												OFFSET -7.176498 0.000000 0.000000
												CHANNELS 3 Xrotation Yrotation Zrotation
												JOINT RightHandMiddle3
												{
													OFFSET -6.774902 0.000000 0.000000
													CHANNELS 3 Xrotation Yrotation Zrotation
													JOINT RightHandMiddle4
													{
														OFFSET -5.403328 0.000000 0.000000
														CHANNELS 3 Xrotation Yrotation Zrotation
														End Site
														{
															OFFSET 0.000000 0.000000 0.000000
														}
													}
												}
											}
										}
										JOINT RightHandRing1
										{
											OFFSET -22.908302 -0.839325 -6.020576
											CHANNELS 3 Xrotation Yrotation Zrotation
											JOINT RightHandRing2
											{
												OFFSET -6.337502 0.000000 0.000000
												CHANNELS 3 Xrotation Yrotation Zrotation
												JOINT RightHandRing3
												{
													OFFSET -5.779297 0.000000 0.000000
													CHANNELS 3 Xrotation Yrotation Zrotation
													JOINT RightHandRing4
													{
														OFFSET -4.965698 0.000000 0.000000
														CHANNELS 3 Xrotation Yrotation Zrotation
														End Site
														{
															OFFSET 0.000000 0.000000 0.000000
														}
													}
												}
											}
										}
										JOINT RightHandPinky1
										{
											OFFSET -20.037003 -1.530334 -10.950259
											CHANNELS 3 Xrotation Yrotation Zrotation
											JOINT RightHandPinky2
											{
												OFFSET -5.254700 0.000000 0.000000
												CHANNELS 3 Xrotation Yrotation Zrotation
												JOINT RightHandPinky3
												{
													OFFSET -4.810204 0.000000 0.000000
													CHANNELS 3 Xrotation Yrotation Zrotation
													JOINT RightHandPinky4
													{
														OFFSET -3.647202 0.000000 0.000000
														CHANNELS 3 Xrotation Yrotation Zrotation
														End Site
														{
															OFFSET 0.000000 0.000000 0.000000
														}
													}
												}
											}
										}
									}
								}
							}
						}
					}
				}
			}
		}
	}
	JOINT LeftUpLeg
	{
		OFFSET 15.427100 -6.655098 0.678600
		CHANNELS 3 Xrotation Yrotation Zrotation
		JOINT LeftLeg
		{
			OFFSET 4.081073 -39.591068 13.024000
			CHANNELS 3 Xrotation Yrotation Zrotation
			JOINT LeftFoot
			{
				OFFSET -4.081074 -37.707932 -15.979700
				CHANNELS 3 Xrotation Yrotation Zrotation
				JOINT LeftToeBase
				{
					OFFSET 5.346399 -15.068900 20.645000
					CHANNELS 3 Xrotation Yrotation Zrotation
					JOINT LeftToe_End
					{
						OFFSET 2.754700 0.931300 11.300900
						CHANNELS 3 Xrotation Yrotation Zrotation
						End Site
						{
							OFFSET 0.000000 0.000000 0.000000
						}
					}
				}
			}
		}
	}
	JOINT RightUpLeg
	{
		OFFSET -15.569500 -6.655098 0.678600
		CHANNELS 3 Xrotation Yrotation Zrotation
		JOINT RightLeg
		{
			OFFSET -4.081825 -39.591045 13.023800
			CHANNELS 3 Xrotation Yrotation Zrotation
			JOINT RightFoot
			{
				OFFSET 4.081824 -37.707954 -15.979600
				CHANNELS 3 Xrotation Yrotation Zrotation
				JOINT RightToeBase
				{
					OFFSET -5.346400 -15.068900 20.645000
					CHANNELS 3 Xrotation Yrotation Zrotation
					JOINT RightToe_End
					{
						OFFSET -2.754700 0.931300 11.300900
						CHANNELS 3 Xrotation Yrotation Zrotation
						End Site
						{
							OFFSET 0.000000 0.000000 0.000000
						}
					}
				}
			}
		}
	}
}
MOTION
Frames: 4
Frame Time: 0.016667
-0.003876 74.367683 -0.357202 11.754897 -49.677667 11.771176 10.996862 2.942103 -2.515437 6.100701 5.566532 -4.284683 0.000000 0.000000 0.000000 -5.786915 6.328138 -3.046187 2.318318 9.363379 -0.265397 -4.146498 23.161926 -3.523236 -0.000000 0.000000 -0.000000 -1.875352 -16.181763 -2.870481 0.000000 0.000000 0.000000 -10.644667 2.164770 -45.510599 -22.862397 -25.786278 -15.871765 2.491049 -2.511849 6.860518 18.457965 -9.513811 13.216596 -1.150192 11.255335 -8.400838 5.706559 8.483109 -0.820723 -0.000001 0.000001 -0.000002 -1.232799 -5.771924 -0.192342 0.133938 -0.197644 -4.602124 0.055721 -0.448188 -7.568179 -0.000004 0.000001 -0.000001 1.884745 4.663371 -4.597412 0.476686 -1.009837 -12.986418 0.628504 -1.346605 -16.554022 0.000000 -0.000003 0.000002 3.024601 7.938950 -14.103484 -0.708004 -0.566218 -18.895720 -0.726382 -0.705039 -22.058427 -0.000001 0.000000 -0.000000 2.010390 6.305953 -22.386532 -0.815393 -0.210773 -16.746478 -2.232627 0.018980 -34.673838 -0.000004 -0.000000 0.000001 -5.074620 24.343750 1.482673 0.000000 0.000000 0.000000 6.642370 -34.733745 57.610439 -21.031993 44.833826 19.961668 -0.087219 35.608495 7.474257 55.149512 18.649599 -29.698287 -0.442531 -14.180559 7.313156 21.666981 -29.244493 9.142370 0.000000 0.000000 -0.000000 5.673384 7.585013 36.844154 1.050476 3.824532 68.900237 0.499566 3.026028 62.196461 -0.000000 -0.000002 -0.000000 -0.125708 1.886076 45.000770 -1.168997 3.204680 68.417663 -0.936413 1.813613 41.107548 0.000001 0.000000 0.000001 -5.311994 1.216633 58.508780 -0.745223 1.667573 48.011285 -0.816467 1.840653 53.666538 -0.000002 -0.000000 0.000001 -7.756834 -9.376439 47.264014 -0.526029 1.541561 45.600535 -0.508185 0.803448 24.986610 0.000002 0.000002 -0.000002 -67.586573 25.164317 42.947232 43.279774 -19.356814 3.336715 8.271863 0.637548 -12.352704 -0.971457 -6.109387 0.595670 0.000000 0.000001 -0.000000 -29.726804 0.631815 -30.302968 49.963046 5.852451 -4.864576 -26.770766 -5.250287 27.155244 0.528336 2.970081 1.471363 -0.000000 0.000002 0.000000 
0.105234 74.293488 -0.178984 11.266733 -51.265091 11.370936 11.013043 2.926512 -2.466509 6.138154 5.594444 -4.285141 0.000000 0.000000 0.000000 -5.748714 6.468363 -2.981398 2.489923 9.336452 -0.252153 -3.932296 23.122427 -3.588223 0.000001 0.000000 -0.000000 -1.831979 -15.691449 -2.734874 0.000000 0.000000 0.000000 -10.284163 1.988963 -45.432824 -22.867634 -26.152769 -16.049789 2.735571 -2.483708 6.839565 18.499205 -9.524873 13.108582 -1.077106 11.351626 -8.411994 5.800705 8.647359 -0.822991 -0.000004 0.000002 -0.000000 -1.131504 -5.650986 -0.728762 0.094708 -0.195228 -5.161577 0.015987 -0.444473 -8.127763 -0.000003 -0.000002 0.000000 1.871909 4.626711 -5.322335 0.428610 -1.020160 -13.711995 0.578722 -1.355364 -17.279940 -0.000001 -0.000002 -0.000000 2.961938 7.871832 -14.814779 -0.750695 -0.567332 -19.622490 -0.769354 -0.704609 -22.785363 0.000002 -0.000000 -0.000002 1.926219 6.257259 -23.049047 -0.855972 -0.211692 -17.424847 -2.263979 0.037687 -35.352178 -0.000003 -0.000001 -0.000000 -5.284796 25.012607 1.987639 0.000000 0.000000 0.000000 5.891132 -33.544162 56.610363 -21.351970 45.089846 20.683971 2.377818 34.175978 4.612037 55.149519 18.649603 -29.698294 -0.442533 -14.180563 7.313154 21.666979 -29.244490 9.142369 0.000001 0.000000 0.000001 5.673387 7.585014 36.844154 1.050473 3.824526 68.900237 0.499567 3.026027 62.196454 0.000001 0.000001 -0.000003 -0.125705 1.886077 45.000773 -1.168997 3.204681 68.417663 -0.936417 1.813611 41.107555 0.000000 -0.000002 0.000001 -5.311992 1.216634 58.508787 -0.745221 1.667577 48.011281 -0.816466 1.840652 53.666538 -0.000002 0.000000 -0.000001 -7.756832 -9.376439 47.264014 -0.526029 1.541567 45.600535 -0.508192 0.803448 24.986610 0.000003 0.000001 -0.000001 -66.208780 24.818573 43.719874 43.836769 -19.573548 3.342022 6.984215 1.062738 -13.148484 -0.780596 -5.855309 0.591836 -0.000000 -0.000000 0.000000 -30.116080 1.033391 -30.020925 49.959077 6.580289 -4.905418 -26.365138 -4.466476 26.881944 0.489603 2.972096 1.458158 -0.000000 -0.000001 -0.000000 
0.166741 74.129807 0.043142 10.718524 -52.787735 10.897435 11.059792 2.931185 -2.349170 6.244017 5.671771 -4.285779 0.000000 0.000000 0.000000 -5.640074 6.608165 -2.917739 2.645281 9.260208 -0.213891 -3.676956 23.009493 -3.772377 0.000001 -0.000000 -0.000000 -1.772854 -15.071253 -2.573301 0.000000 0.000000 0.000000 -9.648124 1.878013 -45.209275 -22.751857 -26.556778 -16.251532 3.425981 -2.405843 6.778303 18.614333 -9.555913 12.806401 -0.869300 11.618013 -8.438095 6.062210 9.107778 -0.832071 -0.000001 -0.000000 -0.000002 -0.835813 -5.325760 -2.231414 -0.013389 -0.184472 -6.726223 -0.093412 -0.430282 -9.692723 -0.000002 0.000000 -0.000002 1.834810 4.529836 -7.349820 0.295687 -1.043549 -15.741542 0.441515 -1.374350 -19.310002 0.000000 0.000002 0.000000 2.782692 7.699093 -16.805740 -0.868388 -0.565354 -21.655180 -0.887356 -0.698303 -24.818245 0.000001 -0.000000 -0.000001 1.688311 6.136081 -24.903438 -0.968008 -0.209430 -19.322209 -2.348465 0.093897 -37.249410 -0.000000 -0.000001 -0.000000 -5.414781 24.900588 2.343738 0.000000 0.000000 0.000000 4.830027 -31.450453 55.681662 -21.606738 44.967397 21.111018 4.968144 32.755999 1.699202 55.149509 18.649603 -29.698298 -0.442535 -14.180560 7.313154 21.666979 -29.244490 9.142369 -0.000000 0.000000 0.000001 5.673385 7.585012 36.844151 1.050473 3.824530 68.900237 0.499563 3.026026 62.196461 -0.000001 0.000003 -0.000003 -0.125708 1.886081 45.000766 -1.168997 3.204678 68.417657 -0.936412 1.813613 41.107548 -0.000000 -0.000001 -0.000001 -5.311991 1.216633 58.508780 -0.745222 1.667578 48.011285 -0.816468 1.840651 53.666535 -0.000001 -0.000001 -0.000002 -7.756832 -9.376439 47.264011 -0.526029 1.541564 45.600539 -0.508188 0.803443 24.986606 0.000001 0.000000 -0.000001 -64.657665 24.005537 43.919380 45.430935 -19.126372 3.399652 5.205408 2.240900 -12.546561 -0.637871 -5.189286 -0.062676 -0.000000 0.000001 0.000000 -30.186257 1.783945 -29.586330 50.071782 7.045815 -5.019740 -26.150542 -4.059196 26.824164 0.378333 2.978202 1.420356 -0.000000 0.000001 -0.000000 
0.218423 73.868279 0.353379 10.116013 -54.268100 10.351310 11.133055 2.954982 -2.172735 6.408564 5.788706 -4.285501 0.000000 0.000000 0.000000 -5.470566 6.747025 -2.854226 2.788234 9.140426 -0.154533 -3.388275 22.831777 -4.057900 -0.000002 0.000000 -0.000000 -1.680934 -14.154107 -2.352877 0.000000 0.000000 0.000000 -8.774229 1.650376 -44.932106 -22.530373 -26.999724 -16.467765 4.497333 -2.288677 6.678776 18.789961 -9.604261 12.342669 -0.550076 12.026266 -8.480243 6.464170 9.813390 -0.850629 0.000001 0.000003 -0.000004 -0.348427 -4.866012 -4.542066 -0.174146 -0.156912 -9.125360 -0.255545 -0.397710 -12.092329 0.000000 -0.000000 0.000000 1.775580 4.397488 -10.459162 0.097240 -1.063970 -18.853837 0.237239 -1.388241 -22.423098 0.000000 0.000000 -0.000001 2.498696 7.477371 -19.862566 -1.042457 -0.547705 -24.771940 -1.061567 -0.674338 -27.935467 -0.000002 -0.000002 0.000002 1.318456 5.993287 -27.751381 -1.134444 -0.192163 -22.231458 -2.468687 0.190824 -40.158449 -0.000001 -0.000001 -0.000003 -5.461416 25.266475 2.495340 0.000000 0.000000 0.000000 3.915304 -29.781527 55.119992 -21.873976 44.541976 21.371850 7.589070 31.575684 -1.256869 55.149516 18.649603 -29.698287 -0.442535 -14.180559 7.313155 21.666981 -29.244486 9.142367 0.000000 -0.000001 0.000000 5.673381 7.585015 36.844151 1.050475 3.824527 68.900237 0.499566 3.026028 62.196454 0.000002 0.000002 0.000000 -0.125708 1.886078 45.000766 -1.168997 3.204678 68.417663 -0.936415 1.813612 41.107548 -0.000000 0.000000 0.000003 -5.311995 1.216635 58.508780 -0.745220 1.667576 48.011285 -0.816471 1.840653 53.666538 0.000002 0.000000 -0.000001 -7.756834 -9.376438 47.264011 -0.526029 1.541563 45.600535 -0.508187 0.803445 24.986610 0.000005 0.000000 -0.000002 -63.076237 22.669309 43.644694 47.833843 -17.806308 3.685709 3.335121 3.571284 -11.602691 -0.127136 -4.220732 -0.546838 0.000000 0.000001 -0.000000 -29.987812 2.858159 -29.084602 50.258178 7.327233 -5.176916 -26.089250 -3.983391 26.983813 0.202319 2.987562 1.360412 0.000000 -0.000002 0.000000 
